# xmcd
#
# Track frame offsets:
#	150
#	10199
#	39264
#	51913
#	67948
#	82272
#	94104
#	108224
#	123067
#
# Disc length: 1886 seconds
#
# Revision: 1
# Processed by: cddbd v1.5.2PL0 Copyright (c) Steve Scherf et al.
# Submitted via: audiograbber 1.83.01
#
DISCID=66075c09
DTITLE=pro musica sacra siegen - ROUTE TO HEAVEN
DYEAR=2001
DGENRE=Christian Brass
TTITLE0=Der Herr sei mit Euch - Henner Jung, Daniel Heinrich
TTITLE1=Ehre sei dem Vater und dem Sohn - Henner Jung
TTITLE2=Kyrie eleison - Daniel Heinrich
TTITLE3=Allein Gott in der Höh' sei Ehr - Daniel Heinrich
TTITLE4=Christus ist erstanden - Henner Jung
TTITLE5=Halleluja - Daniel Heinrich
TTITLE6=Jesus lebt - Henner Jung
TTITLE7=Amen - Daniel Heinrich, Henner Jung
TTITLE8=Nun bitten wir den Heiligen Geist - Daniel Heinrich
EXTD=Übungs-CD zu gleichnamigem Heft
EXTT0=
EXTT1=
EXTT2=
EXTT3=
EXTT4=
EXTT5=
EXTT6=
EXTT7=
EXTT8=
PLAYORDER=
